# AST/ASF file generated using VICON BodyLanguage
# -----------------------------------------------
:version 1.10
:name VICON
:units
  mass 1.0
  length 0.45
  angle deg
:documentation
   .ast/.asf automatically generated from VICON data using
   VICON BodyBuilder and BodyLanguage model FoxedUp or BRILLIANT.MOD
:root
   order TX TY TZ RX RY RZ
   axis XYZ
   position 0 0 0  
   orientation 0 0 0 
:bonedata
  begin
     id 1 
     name lhipjoint
     direction 0.623529 -0.717805 0.309788 
     length 2.23224 
     axis 0 0 0  XYZ
  end
  begin
     id 2 
     name lfemur
     direction 0.34202 -0.939693 0  
     length 7.11402  
     axis 0 0 20  XYZ
    dof rx ry rz
    limits (-160.0 20.0)
           (-70.0 70.0)
           (-60.0 70.0)
  end
  begin
     id 3 
     name ltibia
     direction 0.34202 -0.939693 0   
     length 6.78496   
     axis 0 0 20   XYZ
    dof rx
    limits (-10.0 170.0)
  end
  begin
     id 4 
     name lfoot
     direction 0.125078 -0.343648 0.930732   
     length 1.84054   
     axis -90 7.62852e-016 20   XYZ
    dof rx rz
    limits (-45.0 90.0)
           (-70.0 20.0)
  end
  begin
     id 5 
     name ltoes
     direction 1.53565e-011 -4.21893e-011 1   
     length 0.916474   
     axis -90 7.62852e-016 20   XYZ
    dof rx
    limits (-90.0 20.0)
  end
  begin
     id 6 
     name rhipjoint
     direction -0.564688 -0.757748 0.327026   
     length 2.11457  
     axis 0 0 0  XYZ 
  end
  begin
     id 7 
     name rfemur
     direction -0.34202 -0.939693 0   
     length 7.14609   
     axis 0 0 -20   XYZ
    dof rx ry rz
    limits (-160.0 20.0)
           (-70.0 70.0)
           (-70.0 60.0)
  end
  begin
     id 8 
     name rtibia
     direction -0.34202 -0.939693 0   
     length 6.78101   
     axis 0 0 -20   XYZ
    dof rx
    limits (-10.0 170.0)
 end
 begin
     id 9 
     name rfoot
     direction -0.0992671 -0.272734 0.956955   
     length 1.96168  
     axis -90 -7.62852e-016 -20   XYZ
    dof rx rz
    limits (-45.0 90.0)
           (-20.0 70.0)
  end
  begin
     id 10 
     name rtoes
     direction -1.5356e-011 -4.21891e-011 1   
     length 0.982933   
     axis -90 -7.62852e-016 -20   XYZ
    dof rx
    limits (-90.0 20.0)
  end
  begin
     id 11 
     name lowerback
     direction -0.00596953 0.998668 0.0512524   
     length 1.87557   
     axis 0 0 0   XYZ
    dof rx ry rz
    limits (-20.0 45.0)
           (-30.0 30.0)
           (-30.0 30.0)
  end
  begin
     id 12 
     name upperback
     direction 0.00584879 0.999652 0.0257308   
     length 1.87883   
     axis 0 0 0   XYZ
    dof rx ry rz
    limits (-20.0 45.0)
           (-30.0 30.0)
           (-30.0 30.0)
  end
  begin
     id 13 
     name thorax
     direction 0.010104 0.999947 0.00178881   
     length 1.87779   
     axis 0 0 0   XYZ
    dof rx ry rz
    limits (-20.0 45.0)
           (-30.0 30.0)
           (-30.0 30.0)
  end
  begin
     id 14 
     name lowerneck
     direction 0.0120771 0.995934 -0.0892773   
     length 1.40897   
     axis 0 0 0   XYZ
    dof rx ry rz
    limits (-20.0 45.0)
           (-30.0 30.0)
           (-30.0 30.0)
  end
  begin
     id 15 
     name upperneck
     direction -0.030568 0.999465 -0.0116366   
     length 1.38661   
     axis 0 0 0   XYZ
    dof rx ry rz
    limits (-20.0 45.0)
           (-30.0 30.0)
           (-30.0 30.0)
  end
  begin
     id 16
     name head
     direction -0.0170715 0.999854 -0.00104426  
     length 1.47052  
     axis 0 0 0   XYZ
    dof rx ry rz
    limits (-20.0 45.0)
           (-30.0 30.0)
           (-30.0 30.0)
  end
  begin
     id 17 
     name lclavicle
     direction 0.977763 0.206143 0.038532  
     length 3.02424  
     axis 0 0 0   XYZ
    dof ry rz
    limits (-20.0 10.0)
           (0.0 20.0)
  end
  begin
     id 18 
     name lhumerus
     direction 1 -4.48965e-011 -2.62654e-027   
     length 4.68382   
     axis 180 -30 -90   XYZ
    dof rx ry rz
    limits (-60.0 90.0)
           (-90.0 90.0)
           (-90.0 90.0)
  end
  begin
     id 19
     name lradius
     direction 1 -4.48973e-011 -1.54954e-027   
     length 2.98124   
     axis 180 -30 -90   XYZ
    dof rx
    limits (-10.0 170.0)
  end
  begin
     id 20
     name lwrist
     direction 1 -4.48959e-011 7.20928e-028   
     length 1.49062   
     axis -5.52449e-016 90 90   XYZ
    dof ry
    limits (-180.0 0.0)
 end
  begin
     id 21 
     name lhand
     direction 1 -4.48971e-011 1.44186e-027   
     length 0.707595   
     axis -9.20027e-016 90 90   XYZ
    dof rx rz
    limits (-90.0 90.0)
           (-45.0 45.0)
  end
  begin
     id 22 
     name lfingers
     direction 1 -4.48985e-011 2.88371e-027   
     length 0.570481   
     axis -1.84005e-015 90 90   XYZ
    dof rx
    limits (0.0 90.0)
  end
  begin
     id 23
     name lthumb
     direction 0.707107 -6.34929e-011 0.707107   
     length 0.819101   
     axis -90 45 2.85299e-015   XYZ
    dof rx rz
    limits (-45.0 45.0)
           (-45.0 45.0)
  end
  begin
     id 24 
     name rclavicle
     direction -0.958661 0.284411 -0.00895327   
     length 3.11921  
     axis 0 0 0   XYZ 
    dof ry rz
    limits (-10.0 20.0)
           (-20.0 0.0)
  end
  begin
     id 25 
     name rhumerus
     direction -1 -4.48963e-011 -4.22193e-027  
     length 4.75876   
     axis 180 30 90   XYZ
    dof rx ry rz
    limits (-90.0 60.0)
           (-90.0 90.0)
           (-90.0 90.0)
  end
  begin
     id 26 
     name rradius
     direction -1 -4.48968e-011 -1.07616e-027   
     length 2.93293   
     axis 180 30 90   XYZ
    dof rx
    limits (-10.0 170.0)
  end
  begin
     id 27 
     name rwrist
     direction -1 -4.48965e-011 7.20928e-028   
     length 1.46647   
     axis -5.52449e-016 -90 -90   XYZ
    dof ry
    limits (-180.0 0.0)
  end
  begin
     id 28
     name rhand
     direction -1 -4.48971e-011 1.44186e-027   
     length 0.831748   
     axis -9.20027e-016 -90 -90   XYZ
    dof rx rz
    limits (-90.0 90.0)
           (-45.0 45.0)
  end
  begin
     id 29
     name rfingers
     direction -1 -4.48961e-011 2.88371e-027   
     length 0.670577   
     axis -1.84005e-015 -90 -90   XYZ
    dof rx
    limits (0.0 90.0)
  end
  begin
     id 30
     name rthumb
     direction -0.707107 -6.34929e-011 0.707107   
     length 0.962818   
     axis -90 -45 -2.85299e-015   XYZ
    dof rx rz
    limits (-45.0 45.0)
           (-45.0 45.0)
  end
:hierarchy
  begin
    root lhipjoint rhipjoint lowerback
    lhipjoint lfemur
    lfemur ltibia
    ltibia lfoot
    lfoot ltoes
    rhipjoint rfemur
    rfemur rtibia
    rtibia rfoot
    rfoot rtoes
    lowerback upperback
    upperback thorax
    thorax lowerneck lclavicle rclavicle
    lowerneck upperneck
    upperneck head
    lclavicle lhumerus
    lhumerus lradius
    lradius lwrist
    lwrist lhand lthumb
    lhand lfingers
    rclavicle rhumerus
    rhumerus rradius
    rradius rwrist
    rwrist rhand rthumb
    rhand rfingers
  end

#!OML:ASF E:\id_vita\Project 1\Capture day 1\Session 1\Female.ASF
:FULLY-SPECIFIED
:DEGREES
282
root 25.0726 16.2772 0.724862 -119.058 -85.5766 130.852
lowerback -7.12802 -0.959782 -7.27968
upperback -5.35899 -1.0895 -0.334267
thorax -1.46557 -0.435647 3.67501
lowerneck 1.97257 3.64996 0.250779
upperneck 10.8571 4.3882 3.19893
head 3.05732 2.19271 1.07281
rclavicle -4.19001e-015 7.95139e-016
rhumerus -33.8491 18.9812 -61.3699
rradius 82.1067
rwrist 1.14978
rhand -18.4587 9.57778
rfingers 7.12502
rthumb 7.82759 -20.2573
lclavicle -4.19001e-015 7.95139e-016
lhumerus -9.67402 -4.74754 69.6861
lradius 72.1317
lwrist -7.80828
lhand -15.8911 24.8035
lfingers 7.12502
lthumb 10.3052 54.531
rfemur -34.7037 9.8963 9.43274
rtibia 10.8884
rfoot 0.16096 -22.521
rtoes -3.07505
lfemur -13.0904 0.996389 -22.8228
ltibia 56.4343
lfoot -7.26644 6.82712
ltoes -11.8844
283
root 25.1887 16.2282 0.765857 -122.078 -85.5245 134.167
lowerback -7.31909 -0.948387 -7.12147
upperback -5.40493 -1.07101 -0.236835
thorax -1.40932 -0.431187 3.68661
lowerneck 1.62441 3.57211 0.361881
upperneck 11.2846 4.27865 3.00503
head 3.27765 2.13874 1.00675
rclavicle -9.48576e-015 -9.64106e-015
rhumerus -35.2322 18.2591 -63.1229
rradius 80.0451
rwrist 1.11855
rhand -18.5332 8.19399
rfingers 7.12502
rthumb 7.75572 -21.6438
lclavicle -9.48576e-015 -9.64106e-015
lhumerus -11.0775 -4.02676 70.7786
lradius 70.1481
lwrist -7.64065
lhand -14.7454 24.7395
lfingers 7.12502
lthumb 11.4103 54.409
rfemur -35.8898 9.95621 9.26782
rtibia 11.4923
rfoot -0.0416579 -22.3566
rtoes -2.73068
lfemur -12.6172 0.328479 -22.7878
ltibia 53.9841
lfoot -6.76635 6.30588
ltoes -9.04536
284
root 25.31 16.1742 0.80785 -124.309 -85.5272 136.586
lowerback -7.25991 -1.00117 -6.82474
upperback -5.40432 -1.16058 -0.201664
thorax -1.43174 -0.482259 3.5519
lowerneck 1.5399 3.60837 0.365197
upperneck 11.3482 4.32904 2.94881
head 3.31602 2.1624 0.992449
rclavicle -1.48467e-014 -1.66979e-014
rhumerus -36.2901 17.1066 -64.8213
rradius 77.6043
rwrist 1.52432
rhand -18.0287 7.74435
rfingers 7.12502
rthumb 8.24261 -22.0749
lclavicle -1.48467e-014 -1.66979e-014
lhumerus -12.3842 -3.21818 71.6009
lradius 68.1756
lwrist -7.32528
lhand -13.9067 24.5876
lfingers 7.12502
lthumb 12.219 54.2107
rfemur -36.9198 10.0048 9.10246
rtibia 12.0119
rfoot 0.258025 -22.391
rtoes -4.2784
lfemur -12.0607 -0.276893 -22.734
ltibia 51.8915
lfoot -7.98674 3.68068
ltoes -8.74563
285
root 25.4362 16.1171 0.849895 -124.29 -85.4982 136.788
lowerback -7.10372 -1.05613 -6.80718
upperback -5.39588 -1.24356 -0.120546
thorax -1.49848 -0.519735 3.62364
lowerneck 1.29226 3.66649 0.28717
upperneck 11.4601 4.40602 2.94193
head 3.39844 2.19997 1.01394
rclavicle -1.12298e-014 -2.04748e-014
rhumerus -37.2821 15.7382 -66.1397
rradius 75.1145
rwrist 1.98888
rhand -17.5787 7.8973
rfingers 7.12502
rthumb 8.67691 -21.9044
lclavicle -1.12298e-014 -2.04748e-014
lhumerus -13.6943 -2.44393 72.5395
lradius 66.3827
lwrist -6.97433
lhand -13.6733 24.8418
lfingers 7.12502
lthumb 12.4441 54.4513
rfemur -37.9513 9.90163 8.78447
rtibia 12.473
rfoot 0.475611 -25.9671
rtoes -18.3159
lfemur -11.6364 -0.831284 -22.8428
ltibia 50.2404
lfoot -8.82979 2.82085
ltoes -12.2735
286
root 25.5713 16.0641 0.892073 -124.413 -85.4117 137.314
lowerback -7.10452 -1.00777 -6.86617
upperback -5.41283 -1.17669 -0.0576981
thorax -1.52196 -0.482469 3.72645
lowerneck 1.17254 3.61645 0.250153
upperneck 11.3072 4.35153 2.92311
head 3.36793 2.17403 1.01274
rclavicle -6.2027e-015 -8.05078e-015
rhumerus -38.4179 14.1783 -67.256
rradius 72.7492
rwrist 2.21643
rhand -17.5373 7.97481
rfingers 7.12502
rthumb 8.71685 -21.8252
lclavicle -6.2027e-015 -8.05078e-015
lhumerus -14.8194 -1.82589 73.5574
lradius 64.5301
lwrist -6.84339
lhand -13.5301 25.2687
lfingers 7.12502
lthumb 12.5822 54.8698
rfemur -39.181 9.78363 8.39219
rtibia 12.8662
rfoot 0.650326 -23.851
rtoes -9.67762
lfemur -11.4452 -0.930735 -23.0551
ltibia 49.169
lfoot -9.35404 4.5711
ltoes -15.4999
287
root 25.7071 16.0093 0.938249 -123.936 -85.2266 137.19
lowerback -7.05294 -0.978226 -6.95519
upperback -5.37392 -1.13257 -0.0237004
thorax -1.51372 -0.457476 3.81492
lowerneck 1.1534 3.55469 0.19754
upperneck 10.8227 4.30471 2.83625
head 3.2049 2.15025 0.982993
rclavicle 2.77969e-015 1.39274e-014
rhumerus -39.4735 12.6172 -68.2155
rradius 70.4355
rwrist 2.25184
rhand -17.866 7.98438
rfingers 7.12502
rthumb 8.39963 -21.8286
lclavicle 2.77969e-015 1.39274e-014
lhumerus -15.729 -1.09625 74.4669
lradius 62.3385
lwrist -6.85566
lhand -13.3137 25.24
lfingers 7.12502
lthumb 12.7908 54.8281
rfemur -40.3183 9.72979 7.82999
rtibia 13.1503
rfoot 0.703465 -25.5768
rtoes -14.3435
lfemur -11.4471 -1.0724 -23.4107
ltibia 48.3863
lfoot -11.3953 4.9144
ltoes -17.8253
